<?xml version="1.0" encoding="UTF-8" standalone="no"?>
<!DOCTYPE svg  PUBLIC '-//W3C//DTD SVG 1.1//EN'  'http://www.w3.org/Graphics/SVG/1.1/DTD/svg11.dtd' [<!ENTITY ns_flows "http://ns.adobe.com/Flows/1.0/">]>
<svg xmlns="http://www.w3.org/2000/svg" xml:space="preserve" height="26px" width="45px" version="1.1" y="0px" x="0px" xmlns:xlink="http://www.w3.org/1999/xlink" viewBox="0 0 45 26" enable-background="new 0 0 45 26">
<path d="m40.146 9.266h4.339v-2.058h-5.225c-2.811 0-3.966 1.573-3.966 4.039l-0.001 0.241c-0.47-2.902-2.194-4.279-5.355-4.279h-5.295c-2.132-4.274-6.542-7.209-11.642-7.209-7.178 0-13.001 5.822-13.001 13.002 0 7.181 5.823 12.998 13.001 12.998 5.068 0 9.453-2.895 11.598-7.118h5.402c1.294 0 2.453-0.077 3.641-1.024 0.854-0.679 1.393-1.633 1.64-2.888v3.896h2.476l0.004-4.585h5.846v-2.041h-5.85l0.033-0.826c-0.001-1.34 0.401-2.148 2.355-2.148zm-10.259 7.557h-2.732v-7.557h2.732c2.149 0 2.92 0.918 2.92 3.777 0 2.86-0.771 3.78-2.92 3.78z" fill="#FA7D19"/>
<path d="m18.759 12.032h1.614c1.284 0 2.041-0.258 2.041-1.346 0-1.118-0.756-1.43-2.073-1.43h-5.475v-2.058h6.37c3.232 0 3.689 2.263 3.689 3.523 0 1.342-0.549 3.473-3.694 3.473h-1.562c-1.956 0-2.377 0.707-2.377 2.042v0.626h7.312v1.995h-9.81v-2.897c-0.001-2.463 1.157-3.928 3.965-3.928z" fill="#fff"/>
</svg>
