<?xml version="1.0" encoding="UTF-8" standalone="no"?>
<!-- Created with Inkscape (http://www.inkscape.org/) -->

<svg
   xmlns:dc="http://purl.org/dc/elements/1.1/"
   xmlns:cc="http://creativecommons.org/ns#"
   xmlns:rdf="http://www.w3.org/1999/02/22-rdf-syntax-ns#"
   xmlns:svg="http://www.w3.org/2000/svg"
   xmlns="http://www.w3.org/2000/svg"
   xmlns:xlink="http://www.w3.org/1999/xlink"
   xmlns:sodipodi="http://sodipodi.sourceforge.net/DTD/sodipodi-0.dtd"
   xmlns:inkscape="http://www.inkscape.org/namespaces/inkscape"
   width="500.02228"
   height="500.02228"
   id="svg2"
   version="1.1"
   inkscape:version="0.48.5 r10040"
   sodipodi:docname="lobbyradar.svg">
  <defs
     id="defs4">
    <linearGradient
       id="linearGradient3795">
      <stop
         style="stop-color:#007e15;stop-opacity:1;"
         offset="0"
         id="stop3797" />
      <stop
         id="stop3905"
         offset="0.91772151"
         style="stop-color:#003106;stop-opacity:1;" />
      <stop
         style="stop-color:#c0cdc2;stop-opacity:1;"
         offset="0.92240828"
         id="stop4166" />
      <stop
         style="stop-color:#f7f7f7;stop-opacity:1;"
         offset="1"
         id="stop3799" />
    </linearGradient>
    <linearGradient
       inkscape:collect="always"
       id="linearGradient3785">
      <stop
         style="stop-color:#13ff3b;stop-opacity:1;"
         offset="0"
         id="stop3787" />
      <stop
         style="stop-color:#13ff3b;stop-opacity:0;"
         offset="1"
         id="stop3789" />
    </linearGradient>
    <filter
       inkscape:collect="always"
       id="filter3947"
       x="-0.14377122"
       width="1.2875423"
       y="-0.18431626"
       height="1.3686326"
       color-interpolation-filters="sRGB">
      <feGaussianBlur
         inkscape:collect="always"
         stdDeviation="10.796496"
         id="feGaussianBlur3949" />
    </filter>
    <radialGradient
       inkscape:collect="always"
       xlink:href="#linearGradient3795"
       id="radialGradient3966"
       gradientUnits="userSpaceOnUse"
       cx="357.14285"
       cy="506.64789"
       fx="357.14285"
       fy="506.64789"
       r="138.29071" />
    <linearGradient
       inkscape:collect="always"
       xlink:href="#linearGradient3785"
       id="linearGradient3968"
       gradientUnits="userSpaceOnUse"
       x1="315.267"
       y1="377.62537"
       x2="408.01242"
       y2="482.82568" />
    <radialGradient
       inkscape:collect="always"
       xlink:href="#linearGradient3795"
       id="radialGradient3988"
       gradientUnits="userSpaceOnUse"
       cx="357.14285"
       cy="506.64789"
       fx="357.14285"
       fy="506.64789"
       r="138.29071" />
    <linearGradient
       inkscape:collect="always"
       xlink:href="#linearGradient3785"
       id="linearGradient3990"
       gradientUnits="userSpaceOnUse"
       x1="315.267"
       y1="377.62537"
       x2="408.01242"
       y2="482.82568" />
    <radialGradient
       inkscape:collect="always"
       xlink:href="#linearGradient3795"
       id="radialGradient4008"
       gradientUnits="userSpaceOnUse"
       cx="357.14285"
       cy="506.64789"
       fx="357.14285"
       fy="506.64789"
       r="138.29071" />
    <linearGradient
       inkscape:collect="always"
       xlink:href="#linearGradient3785"
       id="linearGradient4010"
       gradientUnits="userSpaceOnUse"
       x1="315.267"
       y1="377.62537"
       x2="408.01242"
       y2="482.82568" />
    <radialGradient
       inkscape:collect="always"
       xlink:href="#linearGradient3795"
       id="radialGradient3381"
       gradientUnits="userSpaceOnUse"
       cx="357.14285"
       cy="506.64789"
       fx="357.14285"
       fy="506.64789"
       r="138.29071" />
    <linearGradient
       inkscape:collect="always"
       xlink:href="#linearGradient3785"
       id="linearGradient3383"
       gradientUnits="userSpaceOnUse"
       x1="315.267"
       y1="377.62537"
       x2="408.01242"
       y2="482.82568" />
  </defs>
  <sodipodi:namedview
     id="base"
     pagecolor="#ffffff"
     bordercolor="#666666"
     borderopacity="1.0"
     inkscape:pageopacity="0.0"
     inkscape:pageshadow="2"
     inkscape:zoom="1.0370899"
     inkscape:cx="172.21365"
     inkscape:cy="251.93775"
     inkscape:document-units="px"
     inkscape:current-layer="layer1"
     showgrid="false"
     fit-margin-top="0"
     fit-margin-left="0"
     fit-margin-right="0"
     fit-margin-bottom="0"
     inkscape:window-width="1236"
     inkscape:window-height="756"
     inkscape:window-x="44"
     inkscape:window-y="0"
     inkscape:window-maximized="1" />
  <metadata
     id="metadata7">
    <rdf:RDF>
      <cc:Work
         rdf:about="">
        <dc:format>image/svg+xml</dc:format>
        <dc:type
           rdf:resource="http://purl.org/dc/dcmitype/StillImage" />
        <dc:title />
      </cc:Work>
    </rdf:RDF>
  </metadata>
  <g
     inkscape:label="Ebene 1"
     inkscape:groupmode="layer"
     id="layer1"
     transform="translate(0.01517626,-552.33796)">
    <path
       transform="matrix(1.8077859,0,0,1.8077859,-395.63783,-113.54869)"
       d="m 494.28571,506.64789 a 137.14285,137.14285 0 1 1 -274.28571,0 137.14285,137.14285 0 1 1 274.28571,0 z"
       sodipodi:ry="137.14285"
       sodipodi:rx="137.14285"
       sodipodi:cy="506.64789"
       sodipodi:cx="357.14285"
       id="path3793"
       style="fill:url(#radialGradient3381);fill-opacity:1;stroke:#000000;stroke-width:2.29571438;stroke-miterlimit:4;stroke-opacity:1;stroke-dasharray:none"
       sodipodi:type="arc" />
    <g
       style="opacity:0.51298702;fill:#45ff45;fill-opacity:1;filter:url(#filter3947)"
       transform="matrix(1.7221564,0,0,1.7221564,-105.14961,-181.70579)"
       id="g3933">
      <path
         style="fill:#45ff45;fill-opacity:1;stroke:none"
         d="m 180.42952,493.26325 c -6.33561,0 -11.4462,5.09444 -11.4462,11.43006 l 0,26.1858 c 0,6.33561 5.11059,11.44619 11.4462,11.44619 l 51.3061,0 c 6.33562,0 11.43006,-5.11058 11.43006,-11.44619 l 0,-26.1858 c 0,-6.33562 -5.09444,-11.43006 -11.43006,-11.43006 l -51.3061,0 z m 4.10061,9.78334 43.10488,0 c 3.00819,0 5.42443,2.41624 5.42443,5.42445 l 0,24.8297 c 0,3.00819 -2.41624,5.44057 -5.42443,5.44057 l -43.10488,0 c -3.00819,0 -5.42442,-2.43238 -5.42442,-5.44057 l 0,-24.8297 c 0,-3.00821 2.41623,-5.42445 5.42442,-5.42445 z"
         id="path3935"
         inkscape:connector-curvature="0" />
      <rect
         style="fill:#45ff45;fill-opacity:1;stroke:none"
         id="rect3937"
         width="180.22794"
         height="119.19456"
         x="115.96446"
         y="514.65002"
         ry="7.8984351" />
      <path
         style="fill:#45ff45;fill-opacity:1;stroke:#491109;stroke-width:0.62082899;stroke-linecap:butt;stroke-linejoin:miter;stroke-miterlimit:4;stroke-opacity:1;stroke-dasharray:1.24165783, 0.62082891;stroke-dashoffset:0"
         d="m 152.58363,515.10298 0,118.74249"
         id="path3939"
         inkscape:connector-curvature="0"
         sodipodi:nodetypes="cc" />
      <path
         sodipodi:nodetypes="cc"
         inkscape:connector-curvature="0"
         id="path3941"
         d="m 259.51579,515.10298 0,118.74249"
         style="fill:#45ff45;fill-opacity:1;stroke:#491109;stroke-width:0.62082899;stroke-linecap:butt;stroke-linejoin:miter;stroke-miterlimit:4;stroke-opacity:1;stroke-dasharray:1.24165783, 0.62082891;stroke-dashoffset:0" />
    </g>
    <g
       id="g3873"
       transform="matrix(1.7221564,0,0,1.7221564,-105.14961,-181.70579)"
       style="opacity:0.83441557;fill:#000000;fill-opacity:1">
      <path
         inkscape:connector-curvature="0"
         id="rect3839"
         d="m 180.42952,493.26325 c -6.33561,0 -11.4462,5.09444 -11.4462,11.43006 l 0,26.1858 c 0,6.33561 5.11059,11.44619 11.4462,11.44619 l 51.3061,0 c 6.33562,0 11.43006,-5.11058 11.43006,-11.44619 l 0,-26.1858 c 0,-6.33562 -5.09444,-11.43006 -11.43006,-11.43006 l -51.3061,0 z m 4.10061,9.78334 43.10488,0 c 3.00819,0 5.42443,2.41624 5.42443,5.42445 l 0,24.8297 c 0,3.00819 -2.41624,5.44057 -5.42443,5.44057 l -43.10488,0 c -3.00819,0 -5.42442,-2.43238 -5.42442,-5.44057 l 0,-24.8297 c 0,-3.00821 2.41623,-5.42445 5.42442,-5.42445 z"
         style="fill:#000000;fill-opacity:1;stroke:none" />
      <rect
         ry="7.8984351"
         y="514.65002"
         x="115.96446"
         height="119.19456"
         width="180.22794"
         id="rect3837"
         style="fill:#000000;fill-opacity:1;stroke:none" />
      <path
         sodipodi:nodetypes="cc"
         inkscape:connector-curvature="0"
         id="path3844"
         d="m 152.58363,515.10298 0,118.74249"
         style="fill:#000000;fill-opacity:1;stroke:#491109;stroke-width:0.62082899;stroke-linecap:butt;stroke-linejoin:miter;stroke-miterlimit:4;stroke-opacity:1;stroke-dasharray:1.24165783, 0.62082891;stroke-dashoffset:0" />
      <path
         style="fill:#000000;fill-opacity:1;stroke:#491109;stroke-width:0.62082899;stroke-linecap:butt;stroke-linejoin:miter;stroke-miterlimit:4;stroke-opacity:1;stroke-dasharray:1.24165783, 0.62082891;stroke-dashoffset:0"
         d="m 259.51579,515.10298 0,118.74249"
         id="path3850"
         inkscape:connector-curvature="0"
         sodipodi:nodetypes="cc" />
    </g>
    <path
       inkscape:connector-curvature="0"
       style="font-size:medium;font-style:normal;font-variant:normal;font-weight:normal;font-stretch:normal;text-indent:0;text-align:start;text-decoration:none;line-height:normal;letter-spacing:normal;word-spacing:normal;text-transform:none;direction:ltr;block-progression:tb;writing-mode:lr-tb;text-anchor:start;baseline-shift:baseline;color:#000000;fill:#87e08d;fill-opacity:0.17406143;stroke:none;stroke-width:2.29571438;marker:none;visibility:visible;display:inline;overflow:visible;enable-background:accumulate;font-family:Sans;-inkscape-font-specification:Sans"
       d="m 249.99998,567.03068 c -129.93343,0 -235.302739,105.41811 -235.302739,235.35154 0,129.93343 105.369309,235.30268 235.302739,235.30288 129.93343,0 235.30274,-105.36945 235.30274,-235.30288 0,-129.93343 -105.36931,-235.35154 -235.30274,-235.35154 z m -1.9531,3.95509 0,58.30078 c -30.08569,0.3354 -58.32236,8.38564 -82.86135,22.2168 l -29.19919,-50.53713 c 33.12347,-18.79034 71.33117,-29.6423 112.06054,-29.98045 z m 3.90625,0 c 40.73513,0.33541 78.94014,11.1877 112.06054,29.98045 l -29.19923,50.53713 c -24.5363,-13.82983 -52.7733,-21.88523 -82.86131,-22.2168 l 0,-58.30078 z m 115.47851,31.93359 c 33.788,19.93738 62.05122,48.2365 81.9824,82.03125 L 398.87695,714.1498 C 384.06187,689.20194 363.17554,668.27574 338.2324,653.45645 l 29.19924,-50.53709 z m -234.86331,0.0487 29.19923,50.48824 c -24.9488,14.81929 -45.8238,35.74554 -60.6445,60.6934 L 50.585918,684.95052 c 19.931471,-33.782 48.20357,-62.04631 81.982412,-81.98246 z m 115.47855,30.22458 0,58.34962 c -18.761,0.32549 -36.37114,5.31863 -51.75782,13.86721 l -29.19924,-50.53705 c 23.96999,-13.50147 51.56084,-21.34513 80.95706,-21.67969 z m 3.90625,0 c 29.39863,0.33068 56.98962,8.17958 80.95701,21.67969 l -29.19924,50.53718 c -15.38333,-8.54853 -32.99696,-13.54181 -51.75777,-13.86715 l 0,-58.34963 z m -88.28127,23.63283 29.19923,50.53709 c -15.49959,9.34609 -28.54477,22.39089 -37.89062,37.89062 l -50.53714,-29.15029 c 14.4716,-24.36879 34.86498,-44.79779 59.22853,-59.27732 z m 172.65624,0 c 24.35788,14.47953 44.7626,34.90854 59.22853,59.27733 l -50.53709,29.15048 C 335.67718,729.75351 322.62492,716.7087 307.12887,707.36262 L 336.3281,656.82553 z M 48.632821,688.36849 99.121067,717.51887 C 85.278473,742.06911 77.28492,770.32571 76.953105,800.42903 l -58.300776,0 c 0.338239,-40.73126 11.188453,-78.93598 29.980492,-112.06054 z m 402.734369,0 c 18.78457,33.12456 29.64235,71.32928 29.98044,112.06054 l -58.30077,0 c -0.33163,-30.10346 -8.33066,-58.35983 -22.16797,-82.91016 l 50.4883,-29.15038 z m -203.32031,7.08007 0,58.34962 c -7.43777,0.29619 -14.43673,2.23904 -20.65434,5.51755 l -29.15038,-50.53709 c 14.8052,-8.20254 31.75029,-13.00654 49.80472,-13.33008 z m 3.90625,0 c 18.05424,0.32359 35.00278,5.12754 49.80468,13.33008 l -29.15039,50.53709 c -6.20679,-3.26637 -13.23202,-5.22202 -20.65429,-5.51755 l 0,-58.34962 z m -57.12894,15.28318 29.19923,50.53714 c -6.08888,3.85872 -11.27655,9.04923 -15.13673,15.13669 l -50.5371,-29.19919 c 8.99982,-14.92604 21.55091,-27.47133 36.4746,-36.47464 z m 110.35158,0 c 14.92014,9.00331 27.47833,21.5486 36.4746,36.47464 l -50.53709,29.19919 c -3.85877,-6.08746 -9.04923,-11.27797 -15.13674,-15.13669 l 29.19923,-50.53714 z m -202.68554,8.69143 50.58594,29.19919 c -8.56256,15.39642 -13.54153,33.02894 -13.8672,51.80667 l -58.398423,0 c 0.331153,-29.41399 8.166736,-57.02449 21.679683,-81.00586 z m 295.0195,0 c 13.50752,23.98128 21.29992,51.59201 21.63089,81.00586 l -58.34963,0 c -0.32548,-18.77773 -5.30795,-36.41025 -13.86715,-51.80667 l 50.58589,-29.19919 z m -241.11323,31.15233 50.53709,29.15039 c -3.28532,6.22682 -5.22642,13.25157 -5.5176,20.70314 l -58.30078,0 c 0.32359,-18.05552 5.0778,-35.04771 13.28129,-49.85353 z m 187.20701,0 c 8.20014,14.80582 12.95784,31.79801 13.28124,49.85353 l -58.30077,0 c -0.291,-7.45157 -2.23357,-14.47632 -5.51761,-20.70314 l 50.53714,-29.15039 z m -95.89846,7.12892 c 0.11385,-0.005 0.22817,0.005 0.34202,0 l 0,37.3535 -18.70119,-32.37307 c 5.53683,-2.88481 11.76105,-4.64663 18.35936,-4.98043 z m 4.24808,0 c 6.72491,0.28958 13.07026,2.04592 18.70114,4.98043 l -18.70114,32.37307 0,-37.3535 z m -26.02541,6.93358 18.65235,32.37306 -32.27542,-18.65235 c 3.50272,-5.49526 8.13282,-10.21091 13.62307,-13.72071 z m 48.14452,0 c 5.48888,3.5098 10.12177,8.22545 13.62307,13.72071 l -32.32422,18.60351 18.70115,-32.32422 z m -63.72068,17.08983 32.42186,18.7012 -37.45115,0 c 0.28392,-6.73777 2.09076,-13.05926 5.02929,-18.7012 z m 79.29685,0 c 2.9373,5.64194 4.74541,11.96343 5.02933,18.7012 l -37.4512,0 32.42187,-18.7012 z m -270.996081,22.60744 58.300776,0 c 0.335405,30.08537 8.336895,58.3278 22.167962,82.86131 L 48.583974,916.39582 C 29.79921,883.27603 18.990521,845.05803 18.652329,804.33527 z m 62.158218,0 58.398423,0 c 0.32501,18.75378 5.27564,36.37851 13.81836,51.75783 l -50.5371,29.19918 C 88.980637,861.32225 81.145196,833.7409 80.810547,804.33527 z m 62.304663,0 58.30078,0 c 0.29619,7.43759 2.23781,14.43796 5.5176,20.65429 l -50.53709,29.15039 c -8.19868,-14.79953 -12.955,-31.75828 -13.28129,-49.80468 z m 62.20706,0 37.3535,0 -32.32421,18.65235 c -2.93263,-5.6306 -4.73989,-11.9297 -5.02929,-18.65235 z m 52.00192,0 37.35355,0 c -0.28911,6.72265 -2.09794,13.02175 -5.02933,18.65235 l -32.32422,-18.65235 z m 41.25979,0 58.30077,0 c -0.32595,18.0464 -5.08592,35.00515 -13.28124,49.80468 l -50.53714,-29.15039 c 3.27852,-6.21633 5.22141,-13.2167 5.51761,-20.65429 z m 62.20701,0 58.34963,0 c -0.33446,29.40553 -8.12673,56.98708 -21.63089,80.95701 l -50.5371,-29.19918 c 8.53942,-15.37932 13.4933,-33.00405 13.81836,-51.75783 z m 62.25587,0 58.30077,0 c -0.33824,40.72276 -11.1543,78.94076 -29.93164,112.06055 l -50.5371,-29.19924 c 13.82578,-24.53361 21.83294,-52.7758 22.16797,-82.86131 z m -178.41799,3.36912 -18.6523,32.37307 c -5.51156,-3.51628 -10.16056,-8.20576 -13.67192,-13.72072 l 32.32422,-18.65235 z m 10.74222,0 32.32422,18.65235 c -3.50999,5.51496 -8.16178,10.20444 -13.67187,13.72072 l -18.65235,-32.37307 z m -7.32421,2.00199 0,37.30466 c -6.70985,-0.28864 -13.02982,-2.05788 -18.65235,-4.98044 l 18.65235,-32.32422 z m 3.90625,0 18.65235,32.32422 c -5.6213,2.92256 -11.94269,4.69156 -18.65235,4.98044 l 0,-37.30466 z m -43.06644,18.65231 c 3.85928,6.08169 9.05234,11.232 15.13673,15.08789 l -29.19923,50.58594 c -14.94334,-9.01083 -27.46944,-21.57624 -36.4746,-36.52345 l 50.5371,-29.15038 z m 82.22659,0 50.53709,29.15038 c -9.00161,14.94721 -21.53476,27.51262 -36.4746,36.52345 l -29.19923,-50.58594 c 6.08302,-3.85589 11.27887,-9.0062 15.13674,-15.08789 z m -63.67189,17.04103 c 6.20806,3.26637 13.18303,5.22202 20.60549,5.51756 l 0,58.34962 c -18.05292,-0.3236 -35.00042,-5.07992 -49.80472,-13.28124 l 29.19923,-50.58594 z m 45.11718,0 29.19924,50.58594 c -14.80101,8.20132 -31.75195,12.95774 -49.80468,13.28124 l 0,-58.34962 c 7.40697,-0.29478 14.4082,-2.26328 20.60544,-5.51756 z m -117.5781,14.0625 c 9.34736,15.51225 22.37889,28.54075 37.89062,37.89062 l -29.15039,50.53709 c -24.3796,-14.47509 -44.79854,-34.90207 -59.27737,-59.27732 l 50.53714,-29.15039 z m 190.03907,0 50.53709,29.15039 c -14.47311,24.37525 -34.90344,44.80223 -59.27737,59.27732 l -29.15039,-50.53709 c 15.50823,-9.34987 28.5468,-22.37837 37.89067,-37.89062 z m -243.94533,31.10353 c 14.82203,24.95834 35.73231,45.8725 60.69335,60.69335 l -29.15039,50.5371 C 98.798039,981.84729 70.479833,953.58823 50.537119,919.76494 l 50.537091,-29.19919 z m 297.85154,0 50.53714,29.19919 c -19.93109,33.81681 -48.22851,62.08296 -82.03125,82.03126 L 338.2324,951.2591 c 24.95537,-14.82085 45.87704,-35.73501 60.69335,-60.69335 z m -202.63669,8.78903 c 15.38163,8.538 33.00551,13.49335 51.75782,13.81836 l 0,58.34962 c -29.38115,-0.33446 -56.94682,-8.1964 -80.90821,-21.67969 l 29.15039,-50.48829 z m 107.42184,0 29.15039,50.53714 c -23.95388,13.47473 -51.5332,21.3004 -80.90816,21.63084 l 0,-58.34962 c 18.75212,-0.32501 36.3795,-5.28036 51.75777,-13.81836 z m -138.52537,53.85741 c 24.53899,13.82573 52.77566,21.88183 82.86135,22.21681 l 0,58.3497 c -40.72295,-0.3382 -78.94066,-11.1958 -112.06054,-29.9806 l 29.19919,-50.58591 z m 169.62891,0 29.19923,50.58591 c -33.11677,18.7873 -71.33188,29.6451 -112.06054,29.9806 l 0,-58.3497 c 30.08801,-0.33162 58.32501,-8.39235 82.86131,-22.21681 z"
       id="path2985" />
    <path
       transform="matrix(1.7015401,0,0,1.7015401,-357.69291,-59.719476)"
       d="m 313.49697,376.63559 a 137.14285,137.14285 0 0 1 173.16035,84.91059 l -129.51447,45.10171 z"
       sodipodi:ry="137.14285"
       sodipodi:rx="137.14285"
       sodipodi:cy="506.64789"
       sodipodi:cx="357.14285"
       id="path3783"
       style="fill:url(#linearGradient3383);fill-opacity:1;stroke:none"
       sodipodi:type="arc"
       sodipodi:start="4.3885047"
       sodipodi:end="5.9480821" />
  </g>
</svg>
