<?xml version="1.0" encoding="utf-8"?>
<!-- Generator: Adobe Illustrator 16.0.0, SVG Export Plug-In . SVG Version: 6.00 Build 0)  -->
<!DOCTYPE svg PUBLIC "-//W3C//DTD SVG 1.1//EN" "http://www.w3.org/Graphics/SVG/1.1/DTD/svg11.dtd">
<svg version="1.1" id="Ebene_1" xmlns="http://www.w3.org/2000/svg" xmlns:xlink="http://www.w3.org/1999/xlink" x="0px" y="0px"
	 width="491.29px" height="61.764px" viewBox="0 0 491.29 61.764" enable-background="new 0 0 491.29 61.764" xml:space="preserve">
<rect x="-407.79" y="-213.859" fill="none" width="603.76" height="97.101"/>
<g enable-background="new    ">
	<path fill="#FFFFFF" d="M1.267,46.779v-5.562L24.47,12.206c1.647-2.06,3.213-3.852,4.696-5.376H3.893V1.485h32.441V6.83
		L10.906,38.252l-2.75,3.183h28.919v5.345H1.267z"/>
	<path fill="#FFFFFF" d="M43.533,46.779V1.485h15.603c3.522,0,6.21,0.216,8.064,0.648c2.595,0.598,4.81,1.679,6.643,3.244
		c2.389,2.019,4.176,4.599,5.36,7.739c1.184,3.142,1.776,6.73,1.776,10.768c0,3.44-0.401,6.488-1.205,9.146
		c-0.804,2.657-1.833,4.856-3.09,6.597c-1.257,1.74-2.631,3.11-4.125,4.109c-1.494,0.999-3.296,1.756-5.407,2.271
		c-2.111,0.516-4.537,0.772-7.276,0.772H43.533z M49.527,41.434h9.671c2.986,0,5.33-0.278,7.029-0.835
		c1.699-0.556,3.053-1.338,4.063-2.348c1.421-1.421,2.528-3.332,3.321-5.731c0.792-2.399,1.189-5.309,1.189-8.729
		c0-4.737-0.778-8.378-2.333-10.922c-1.556-2.544-3.445-4.248-5.669-5.113c-1.607-0.618-4.192-0.927-7.755-0.927h-9.516V41.434z"/>
	<path fill="#FFFFFF" d="M89.538,46.779V1.485h30.557V6.83H95.532v14.027h21.257v5.345H95.532v20.577H89.538z"/>
</g>
<g enable-background="new    ">
	<path fill="#FFFFFF" d="M145.431,46.779V1.855h9.146v37.292h22.74v7.632H145.431z"/>
	<path fill="#FFFFFF" d="M181.766,29.91c0-2.884,0.71-5.675,2.132-8.373c1.421-2.698,3.434-4.759,6.04-6.18
		c2.605-1.421,5.515-2.132,8.729-2.132c4.963,0,9.032,1.612,12.204,4.835c3.172,3.225,4.758,7.297,4.758,12.22
		c0,4.965-1.602,9.079-4.804,12.344c-3.203,3.265-7.235,4.896-12.096,4.896c-3.007,0-5.875-0.68-8.604-2.039
		c-2.729-1.359-4.805-3.353-6.226-5.979C182.476,36.877,181.766,33.678,181.766,29.91z M190.664,30.373
		c0,3.255,0.772,5.747,2.317,7.478c1.545,1.729,3.45,2.595,5.716,2.595c2.266,0,4.166-0.865,5.7-2.595
		c1.535-1.73,2.302-4.243,2.302-7.539c0-3.213-0.768-5.686-2.302-7.415c-1.535-1.73-3.435-2.596-5.7-2.596
		c-2.266,0-4.171,0.865-5.716,2.596C191.436,24.626,190.664,27.119,190.664,30.373z"/>
	<path fill="#FFFFFF" d="M222.054,46.779V1.485h8.682v16.312c2.677-3.048,5.85-4.572,9.516-4.572c3.996,0,7.302,1.447,9.918,4.341
		c2.615,2.895,3.924,7.05,3.924,12.467c0,5.604-1.334,9.918-4.002,12.946c-2.667,3.027-5.906,4.541-9.716,4.541
		c-1.875,0-3.723-0.469-5.546-1.405c-1.823-0.938-3.394-2.322-4.712-4.156v4.82H222.054z M230.674,29.662
		c0,3.399,0.536,5.912,1.607,7.539c1.503,2.308,3.501,3.461,5.994,3.461c1.916,0,3.548-0.819,4.897-2.457
		c1.349-1.637,2.023-4.217,2.023-7.739c0-3.749-0.68-6.452-2.039-8.11s-3.1-2.487-5.222-2.487c-2.081,0-3.811,0.809-5.19,2.426
		C231.364,23.911,230.674,26.367,230.674,29.662z"/>
	<path fill="#FFFFFF" d="M260.706,46.779V1.485h8.683v16.312c2.677-3.048,5.85-4.572,9.517-4.572c3.995,0,7.301,1.447,9.918,4.341
		c2.615,2.895,3.924,7.05,3.924,12.467c0,5.604-1.334,9.918-4.002,12.946c-2.668,3.027-5.906,4.541-9.717,4.541
		c-1.875,0-3.723-0.469-5.546-1.405c-1.823-0.938-3.394-2.322-4.712-4.156v4.82H260.706z M269.327,29.662
		c0,3.399,0.535,5.912,1.606,7.539c1.503,2.308,3.501,3.461,5.993,3.461c1.916,0,3.549-0.819,4.898-2.457
		c1.348-1.637,2.023-4.217,2.023-7.739c0-3.749-0.68-6.452-2.039-8.11s-3.101-2.487-5.223-2.487c-2.08,0-3.811,0.809-5.189,2.426
		C270.016,23.911,269.327,26.367,269.327,29.662z"/>
	<path fill="#FFFFFF" d="M295.62,13.967h9.237l7.849,23.296l7.662-23.296h8.99l-11.586,31.576l-2.07,5.717
		c-0.762,1.915-1.488,3.377-2.178,4.387c-0.69,1.009-1.483,1.828-2.379,2.456c-0.896,0.629-1.998,1.117-3.307,1.468
		s-2.785,0.525-4.434,0.525c-1.668,0-3.306-0.175-4.912-0.525l-0.772-6.797c1.359,0.268,2.585,0.401,3.677,0.401
		c2.018,0,3.512-0.592,4.48-1.776c0.967-1.185,1.709-2.693,2.224-4.526L295.62,13.967z"/>
	<path fill="#FFFFFF" d="M343.231,46.779h-8.682V13.967h8.063v4.666c1.38-2.204,2.621-3.656,3.724-4.356
		c1.102-0.7,2.353-1.051,3.754-1.051c1.977,0,3.882,0.546,5.715,1.638l-2.688,7.569c-1.463-0.947-2.822-1.421-4.078-1.421
		c-1.216,0-2.246,0.335-3.09,1.004c-0.845,0.67-1.509,1.88-1.992,3.631c-0.484,1.751-0.727,5.417-0.727,10.999V46.779z"/>
	<path fill="#FFFFFF" d="M366.033,23.977l-7.879-1.421c0.886-3.172,2.41-5.521,4.573-7.045c2.162-1.523,5.375-2.286,9.639-2.286
		c3.873,0,6.756,0.459,8.652,1.375c1.895,0.917,3.229,2.081,4,3.491c0.773,1.411,1.159,4.001,1.159,7.771l-0.093,10.134
		c0,2.885,0.139,5.011,0.417,6.381s0.798,2.837,1.561,4.402h-8.589c-0.228-0.576-0.506-1.432-0.835-2.564
		c-0.144-0.515-0.247-0.854-0.309-1.02c-1.483,1.442-3.069,2.523-4.759,3.244c-1.688,0.721-3.49,1.081-5.406,1.081
		c-3.379,0-6.041-0.916-7.986-2.749c-1.947-1.834-2.92-4.15-2.92-6.952c0-1.854,0.442-3.507,1.328-4.959
		c0.885-1.452,2.127-2.564,3.723-3.337s3.898-1.446,6.906-2.023c4.057-0.762,6.869-1.473,8.434-2.132v-0.865
		c0-1.669-0.412-2.858-1.235-3.568c-0.823-0.711-2.379-1.066-4.665-1.066c-1.545,0-2.75,0.305-3.615,0.912
		S366.568,22.453,366.033,23.977z M377.649,31.022c-1.111,0.37-2.873,0.813-5.283,1.328c-2.409,0.515-3.984,1.02-4.727,1.514
		c-1.133,0.804-1.699,1.823-1.699,3.059c0,1.216,0.453,2.267,1.359,3.152s2.06,1.328,3.461,1.328c1.564,0,3.059-0.515,4.479-1.545
		c1.05-0.782,1.74-1.74,2.069-2.873c0.227-0.742,0.34-2.152,0.34-4.233V31.022z"/>
	<path fill="#FFFFFF" d="M424.829,46.779h-8.064v-4.82c-1.339,1.875-2.92,3.271-4.742,4.187c-1.823,0.917-3.662,1.375-5.516,1.375
		c-3.77,0-6.998-1.519-9.686-4.557s-4.032-7.276-4.032-12.714c0-5.562,1.308-9.789,3.924-12.684
		c2.616-2.894,5.922-4.341,9.918-4.341c3.666,0,6.839,1.524,9.517,4.572V1.485h8.682V46.779z M401.656,29.662
		c0,3.502,0.483,6.036,1.452,7.601c1.4,2.267,3.357,3.399,5.871,3.399c1.997,0,3.696-0.85,5.098-2.549
		c1.4-1.7,2.101-4.238,2.101-7.616c0-3.77-0.68-6.483-2.039-8.142s-3.101-2.487-5.222-2.487c-2.06,0-3.785,0.819-5.175,2.456
		C402.351,23.962,401.656,26.408,401.656,29.662z"/>
	<path fill="#FFFFFF" d="M439.875,23.977l-7.879-1.421c0.885-3.172,2.41-5.521,4.572-7.045c2.163-1.523,5.377-2.286,9.641-2.286
		c3.872,0,6.756,0.459,8.65,1.375c1.895,0.917,3.229,2.081,4.002,3.491c0.771,1.411,1.158,4.001,1.158,7.771l-0.093,10.134
		c0,2.885,0.14,5.011,0.417,6.381c0.278,1.37,0.798,2.837,1.561,4.402h-8.59c-0.227-0.576-0.504-1.432-0.834-2.564
		c-0.145-0.515-0.247-0.854-0.309-1.02c-1.483,1.442-3.07,2.523-4.758,3.244c-1.689,0.721-3.492,1.081-5.407,1.081
		c-3.378,0-6.04-0.916-7.987-2.749c-1.946-1.834-2.92-4.15-2.92-6.952c0-1.854,0.443-3.507,1.329-4.959s2.126-2.564,3.724-3.337
		c1.596-0.772,3.897-1.446,6.904-2.023c4.059-0.762,6.869-1.473,8.436-2.132v-0.865c0-1.669-0.412-2.858-1.236-3.568
		c-0.824-0.711-2.379-1.066-4.665-1.066c-1.545,0-2.75,0.305-3.615,0.912C441.112,21.387,440.411,22.453,439.875,23.977z
		 M451.493,31.022c-1.112,0.37-2.873,0.813-5.283,1.328s-3.986,1.02-4.728,1.514c-1.133,0.804-1.699,1.823-1.699,3.059
		c0,1.216,0.452,2.267,1.359,3.152c0.906,0.886,2.06,1.328,3.46,1.328c1.565,0,3.059-0.515,4.48-1.545
		c1.051-0.782,1.74-1.74,2.07-2.873c0.227-0.742,0.34-2.152,0.34-4.233V31.022z"/>
	<path fill="#FFFFFF" d="M476.889,46.779h-8.682V13.967h8.064v4.666c1.379-2.204,2.621-3.656,3.723-4.356s2.354-1.051,3.754-1.051
		c1.978,0,3.883,0.546,5.716,1.638l-2.688,7.569c-1.462-0.947-2.822-1.421-4.078-1.421c-1.215,0-2.245,0.335-3.09,1.004
		c-0.844,0.67-1.508,1.88-1.992,3.631s-0.727,5.417-0.727,10.999V46.779z"/>
</g>
</svg>
