<?xml version="1.0" encoding="utf-8"?>
<!-- Generator: Adobe Illustrator 16.0.0, SVG Export Plug-In . SVG Version: 6.00 Build 0)  -->
<!DOCTYPE svg PUBLIC "-//W3C//DTD SVG 1.1//EN" "http://www.w3.org/Graphics/SVG/1.1/DTD/svg11.dtd">
<svg version="1.1" id="Ebene_1" xmlns="http://www.w3.org/2000/svg" xmlns:xlink="http://www.w3.org/1999/xlink" x="0px" y="0px"
	 width="480.479px" height="61.764px" viewBox="0 0 480.479 61.764" enable-background="new 0 0 480.479 61.764"
	 xml:space="preserve">
<rect x="-407.79" y="-213.859" fill="none" width="603.76" height="97.101"/>
<g enable-background="new    ">
	<path fill="#FFFFFF" d="M1.076,42.912L29.233,4.953H3.227v-3.67h31.195v3.612L6.011,43.108h28.854v3.67H1.076V42.912z"/>
	<path fill="#FFFFFF" d="M54.86,1.283c2.699,0,5.146,0.126,7.34,0.379c2.193,0.253,4.176,0.949,5.948,2.089
		c2.784,1.771,4.914,4.355,6.391,7.751c1.476,3.396,2.215,7.541,2.215,12.434c0,5.273-0.813,9.649-2.436,13.13
		c-1.625,3.48-3.998,6.064-7.119,7.751c-1.646,0.886-3.586,1.435-5.822,1.646c-2.236,0.212-4.831,0.316-7.783,0.316H41.065V1.283
		h10.694H54.86z M54.037,43.108c2.531,0,4.746-0.084,6.644-0.254c1.898-0.169,3.521-0.656,4.872-1.461
		c4.598-2.75,6.897-8.528,6.897-17.331c0-8.507-2.194-14.2-6.581-17.078c-1.477-0.973-3.227-1.555-5.252-1.746
		c-2.024-0.189-4.366-0.285-7.023-0.285h-8.353v38.155H54.037z"/>
	<path fill="#FFFFFF" d="M85.168,1.283h28.791v3.67H89.344v16.578h22.336v3.67H89.344v21.577h-4.176V1.283z"/>
	<path fill="#FFFFFF" d="M120.792,1.281h11.706v35.626h22.021v9.871h-33.727V1.281z"/>
	<path fill="#FFFFFF" d="M174.577,11.975c11.2,0,17.845,6.771,17.845,17.971s-6.645,17.971-17.845,17.971
		s-17.781-6.707-17.781-17.971S163.44,11.975,174.577,11.975z M174.577,39.501c4.113,0,6.581-3.354,6.581-9.555
		s-2.468-9.492-6.581-9.492c-4.113,0-6.518,3.291-6.518,9.492S170.464,39.501,174.577,39.501z"/>
	<path fill="#FFFFFF" d="M209.315,1.281v16.136c2.215-3.417,5.695-5.252,10.125-5.252c7.973,0,14.048,7.087,14.048,17.971
		c0,10.631-5.885,17.592-14.174,17.592c-4.303,0-7.467-1.709-9.935-5.379v4.493h-11.011V1.281H209.315z M215.77,20.77
		c-4.113,0-6.581,3.164-6.581,8.859c0,6.138,2.215,9.302,6.391,9.302s6.518-3.227,6.518-9.302
		C222.098,24.061,219.63,20.77,215.77,20.77z"/>
	<path fill="#FFFFFF" d="M250.319,1.281v16.136c2.215-3.417,5.695-5.252,10.124-5.252c7.974,0,14.048,7.087,14.048,17.971
		c0,10.631-5.885,17.592-14.174,17.592c-4.303,0-7.467-1.709-9.936-5.379v4.493h-11.01V1.281H250.319z M256.773,20.77
		c-4.113,0-6.581,3.164-6.581,8.859c0,6.138,2.215,9.302,6.391,9.302c4.177,0,6.518-3.227,6.518-9.302
		C263.1,24.061,260.633,20.77,256.773,20.77z"/>
	<path fill="#FFFFFF" d="M293.092,59.56c-2.15,0.949-5.062,0.949-8.795,0.949h-2.911v-8.732h2.151c3.607,0,5.315-0.633,5.315-3.417
		c0-1.329-0.696-3.037-1.646-5.442l-11.326-29.74h11.832l6.328,22.906l6.455-22.906h11.706l-13.415,37.334
		C297.016,55.384,295.687,58.422,293.092,59.56z"/>
	<path fill="#FFFFFF" d="M315.808,13.177h10.567v5.885c2.342-4.619,5.695-6.645,11.074-6.708v10.885
		c-0.949-0.127-1.898-0.19-2.721-0.19c-3.354,0-5.506,0.949-6.834,3.101c-1.014,1.709-1.14,4.746-1.14,9.365v11.264h-10.947V13.177z
		"/>
	<path fill="#FFFFFF" d="M362.506,46.778c-0.254-1.076-0.443-2.215-0.57-3.48c-3.1,3.101-6.518,4.557-10.693,4.557
		c-6.581,0-10.504-3.924-10.504-9.872c0-5.632,2.975-9.049,8.922-10.44c7.783-1.835,11.96-1.329,11.96-3.924v-0.822
		c0-1.962-1.519-2.974-4.366-2.974c-3.164,0-4.999,1.328-5.441,3.796h-10.125c1.076-7.656,6.264-11.264,15.819-11.264
		c5.885,0,9.998,1.393,12.339,4.366c2.088,2.722,2.215,6.139,2.215,10.758v12.719c0,2.975,0.506,4.746,1.646,5.315v1.266H362.506z
		 M354.786,32.983c-2.467,0.696-3.605,1.709-3.605,3.733c0,2.342,1.581,3.987,4.049,3.987c3.734,0,6.392-2.342,6.392-5.886v-3.859
		C359.722,32.161,357.254,32.288,354.786,32.983z"/>
	<path fill="#FFFFFF" d="M412.748,46.842h-11.011v-4.493c-2.467,3.67-5.631,5.379-9.934,5.379c-8.29,0-14.175-6.961-14.175-17.592
		c0-10.884,6.075-17.971,14.048-17.971c4.43,0,7.91,1.835,10.124,5.252V1.281h10.947V46.842z M395.536,38.931
		c4.177,0,6.392-3.164,6.392-9.302c0-5.695-2.405-8.859-6.519-8.859c-3.859,0-6.391,3.291-6.391,8.859
		C389.018,35.705,391.36,38.931,395.536,38.931z"/>
	<path fill="#FFFFFF" d="M440.399,46.778c-0.254-1.076-0.443-2.215-0.57-3.48c-3.1,3.101-6.518,4.557-10.693,4.557
		c-6.581,0-10.504-3.924-10.504-9.872c0-5.632,2.975-9.049,8.922-10.44c7.783-1.835,11.96-1.329,11.96-3.924v-0.822
		c0-1.962-1.519-2.974-4.366-2.974c-3.164,0-4.999,1.328-5.441,3.796h-10.125c1.076-7.656,6.264-11.264,15.819-11.264
		c5.885,0,9.998,1.393,12.339,4.366c2.088,2.722,2.215,6.139,2.215,10.758v12.719c0,2.975,0.506,4.746,1.646,5.315v1.266H440.399z
		 M432.678,32.983c-2.467,0.696-3.605,1.709-3.605,3.733c0,2.342,1.581,3.987,4.049,3.987c3.734,0,6.392-2.342,6.392-5.886v-3.859
		C437.615,32.161,435.147,32.288,432.678,32.983z"/>
	<path fill="#FFFFFF" d="M457.292,13.177h10.567v5.885c2.342-4.619,5.695-6.645,11.074-6.708v10.885
		c-0.949-0.127-1.898-0.19-2.721-0.19c-3.354,0-5.506,0.949-6.834,3.101c-1.014,1.709-1.14,4.746-1.14,9.365v11.264h-10.947V13.177z
		"/>
</g>
</svg>
